<?xml version="1.0" encoding="utf-8"?>
<!-- Generator: Adobe Illustrator 22.0.0, SVG Export Plug-In . SVG Version: 6.00 Build 0)  -->
<svg version="1.1" id="Layer_1" xmlns="http://www.w3.org/2000/svg" xmlns:xlink="http://www.w3.org/1999/xlink" x="0px" y="0px"
	 viewBox="0 0 504 504" style="enable-background:new 0 0 504 504;" xml:space="preserve">
<style type="text/css">
	.st0{fill:#0C424F;}
	.st1{fill:#99FFFF;}
</style>
<g>
	<g>
		<path class="st0" d="M237.9,257.7c-10.1-0.6-23.1-4.9-39.1-13.2L160,224.4c-17.5,53.5-31.3,89.8-41.9,108.8
			c-16.1,29.1-36.3,43.7-60.8,43.7c-11.6,0-22.5-2.5-32.4-7.6C12.6,363,6.6,354.6,7,344c1.4-38.3,16.1-69.7,44.1-94.2
			c22.2-19.4,45.9-31.6,71.2-36.3c4-0.8,9.4-1.4,16.1-1.9c16.4-53.6,24.7-94.1,24.7-121.1c0-7.2-1-14.6-2.9-21.9l37.6,17.9
			l56.7,151.8c7.3-2.4,16.4-10.7,26.9-24.9c-4.3,17.2-11.9,29.8-22.7,38c24.5,64,42.8,107.8,55,131.3l-3.5,0.4
			C274.4,323.2,250.4,281.5,237.9,257.7z M125,220.3c-9.3,4.2-21.2,12.1-35.9,23.4c-17.6,13.7-28.8,23.3-34,28.4
			c-27.2,27.6-40.6,50.2-40.6,67.5c0,16.5,9.6,24.8,28.8,24.8c27.7,0,46.7-14.1,57.1-42.4v0.8c4.9-13.7,15.7-48.1,32.6-103.1
			c-1-0.3-1.9-0.4-2.9-0.4C127.7,219.6,126.1,219.9,125,220.3z M163.5,212.5c13.9,1.8,26.3,5.1,37.6,10.1l24.7,10.8
			c-16.9-34.4-30.6-66.4-41-96L163.5,212.5z"/>
		<path class="st0" d="M307.8,211.7v-12.2l29.2,16.4c-3.5,6-5.1,13.9-5.1,23.4c0,19.4,5.3,42.7,15.7,70
			c16.8-25.8,25.2-56.1,25.2-91.1c0-5-0.4-10.8-1.1-17.7l24.7,18.6c-3,47.3-17.6,83.6-43.5,108.5l-1.7-3.9
			C322.2,299.8,307.8,262.4,307.8,211.7z"/>
		<path class="st0" d="M491.3,328.1c-9.8-10.4-17.5-24-22.9-40.6c-5.1,7.8-15.2,20.7-30.4,38.8c-16.1-20.4-24-48.2-24-83.6
			c0-9.4,0.4-18.6,1.1-27.4l26.9-15.2c11.6,7.1,19.8,12.1,24.7,14.8c1.1-6,2.5-11.8,4-17.6l25.2,19.1c-8.3,10.7-12.5,27.9-12.5,51.3
			C483.5,285.3,486.2,305.5,491.3,328.1z M465.6,225.7c-10.9-5.4-19.7-9-26.3-10.5c-1.9,10.7-2.9,21.9-2.9,33.5
			c0,21.1,3.2,40.3,9.7,57.8c12.5-15.2,19-27,19.4-35.1c-1.9-7.5-2.9-15.5-2.9-23.8C462.7,240.6,463.7,233.3,465.6,225.7z"/>
	</g>
	<g>
		<path class="st1" d="M285.6,431.9c0,1.5-0.4,2.8-1.4,3.7s-2.2,1.4-3.7,1.4h-19.1c-1.5,0-2.8-0.4-3.7-1.4c-1-1-1.4-2.2-1.4-3.7
			v-62.6c0-1.5,0.4-2.8,1.4-3.7c1-1,2.2-1.4,3.7-1.4h19.1c1.5,0,2.8,0.4,3.7,1.4s1.4,2.2,1.4,3.7v17h-6.5v-16.5h-16.5v61.5h16.5
			v-25.2h-7.8v-5.5h14.3V431.9z"/>
		<path class="st1" d="M322.1,437H316v-1.2c-2.5,0.3-4.9,0.7-7.3,1c-3,0.4-5.5,0.6-7.3,0.6c-3.3,0-5.1-1.7-5.1-5v-16.6
			c0-3.5,1.8-5.3,5.3-5.3H316v-13.7h-13.3v7.8h-6v-7.6c0-3.5,1.8-5.3,5.3-5.3h15c3.5,0,5.3,1.8,5.3,5.3V437H322.1z M316.1,431.4
			v-16.1h-13.9v16.4L316.1,431.4z"/>
		<path class="st1" d="M338.8,437h-6.1v-73h6.1V437z"/>
		<path class="st1" d="M355.9,437h-6.1v-73h6.1V437z"/>
		<path class="st1" d="M391.8,431.8c0,3.5-1.8,5.3-5.3,5.3h-15c-3.5,0-5.3-1.8-5.3-5.3v-34.9c0-3.5,1.8-5.3,5.3-5.3h15
			c3.5,0,5.3,1.8,5.3,5.3v16.4l-2.1,2.2h-17.3v16.5h13.3v-8.3h6v8.2H391.8z M385.8,410.4v-13.7h-13.3v13.7H385.8z"/>
		<path class="st1" d="M425.9,406.5h-6.1v-9.4l-11.5,0.4V437H402v-45.5h6.2v1.2c2.1-0.3,4.2-0.7,6.2-1c2.5-0.4,4.6-0.6,6.2-0.6
			c3.5,0,5.1,1.7,5.1,5.1L425.9,406.5L425.9,406.5z"/>
		<path class="st1" d="M459.3,391.6l-10.9,45l-4.6,17.6h-6.1l4.6-17.6l-11.2-45h6.4l7.8,35.8l7.9-35.8H459.3z"/>
	</g>
</g>
</svg>
